<?xml version="1.0" encoding="UTF-8" standalone="no"?>
<!-- Created with Inkscape (http://www.inkscape.org/) -->

<svg
   width="210mm"
   height="297mm"
   viewBox="0 0 210 297"
   version="1.1"
   id="svg1"
   xml:space="preserve"
   inkscape:version="1.4.3 (0d15f75042, 2025-12-25)"
   sodipodi:docname="icon.svg"
   inkscape:export-filename="/tmp/icon.svg"
   inkscape:export-xdpi="96"
   inkscape:export-ydpi="96"
   xmlns:inkscape="http://www.inkscape.org/namespaces/inkscape"
   xmlns:sodipodi="http://sodipodi.sourceforge.net/DTD/sodipodi-0.dtd"
   xmlns:xlink="http://www.w3.org/1999/xlink"
   xmlns="http://www.w3.org/2000/svg"
   xmlns:svg="http://www.w3.org/2000/svg"><sodipodi:namedview
     id="namedview1"
     pagecolor="#ffffff"
     bordercolor="#000000"
     borderopacity="0.25"
     inkscape:showpageshadow="2"
     inkscape:pageopacity="0.0"
     inkscape:pagecheckerboard="0"
     inkscape:deskcolor="#d1d1d1"
     inkscape:document-units="mm"
     showguides="true"
     inkscape:zoom="0.90509668"
     inkscape:cx="153.57475"
     inkscape:cy="683.35242"
     inkscape:window-width="2560"
     inkscape:window-height="1440"
     inkscape:window-x="0"
     inkscape:window-y="0"
     inkscape:window-maximized="1"
     inkscape:current-layer="layer1" /><defs
     id="defs1"><linearGradient
       id="linearGradient1"
       inkscape:collect="always"><stop
         style="stop-color:#0096ff;stop-opacity:1;"
         offset="0.00000025"
         id="stop1" /><stop
         style="stop-color:#1180ef;stop-opacity:1;"
         offset="0.52661902"
         id="stop11" /><stop
         style="stop-color:#2b00ff;stop-opacity:1;"
         offset="1"
         id="stop2" /></linearGradient><linearGradient
       inkscape:collect="always"
       xlink:href="#linearGradient1"
       id="linearGradient2"
       x1="61.042156"
       y1="175.27721"
       x2="70.847649"
       y2="157.36755"
       gradientUnits="userSpaceOnUse"
       gradientTransform="matrix(10.991542,0,0,10.991542,-629.6219,-1687.6392)" /></defs><g
     inkscape:label="Layer 1"
     inkscape:groupmode="layer"
     id="layer1"><path
       style="fill:url(#linearGradient2);stroke-width:2.91275"
       d="m 161.67991,75.609589 c 0,0 -11.75673,16.45225 -23.20092,18.770147 -11.44419,2.317896 -20.06649,-0.782598 -20.06649,-0.782598 l -0.19696,81.122922 c -4.67317,-4.25663 -7.01117,-6.40714 -9.34734,-6.39622 -2.33621,0.0109 -4.67051,2.06752 -9.336353,6.22508 0,0 -5.778843,-11.2217 -17.743263,-11.12992 -12.596686,0.0989 -23.576577,10.21048 -24.125066,25.463 -0.566724,15.75869 10.363129,26.9517 23.839679,26.9218 16.20893,-0.033 18.022118,-13.65377 18.022118,-13.65377 0,0 -11.038141,-0.31423 -11.118571,-3.33988 -0.10222,-3.85033 17.182516,-24.44178 20.376936,-24.43112 2.96169,0.01 20.90066,20.69244 20.91685,24.05333 0.0176,3.6161 -11.48554,3.71469 -11.48554,3.71469 0,0 -5.89681,31.95382 -35.890063,31.85215 -26.055274,-0.0879 -41.199828,-19.03117 -41.15369,-43.64983 0.04623,-24.66956 19.600666,-42.98908 40.323507,-42.96891 11.303973,0.011 18.06368,5.59047 18.06368,5.59047 L 99.149307,67.086417 c 0,0 10.511163,5.060506 13.593953,6.293647 3.37494,1.349982 10.5279,4.656018 24.08039,4.828145 13.55248,0.172568 24.85624,-2.597741 24.85624,-2.597741 z"
       id="path1"
       sodipodi:nodetypes="czccscssscssscsssccszcc" /></g><g
     inkscape:groupmode="layer"
     id="layer2"
     inkscape:label="Layer 2" /></svg>
